{"title":"Chain Letter 2010 720p BRRip x264 Feel-Free","uid":6146654,"size":2577713305,"categoryP":"video","categoryS":"hd___movies","magnet":"?xt=urn:btih:dcce44715619faaf8ab245817eb272a4a256a3f2&amp;dn=Chain+Letter+2010+720p+BRRip+x264+Feel-Free&amp;tr=udp%3A%2F%2Ftracker.openbittorrent.com%3A80&amp;tr=udp%3A%2F%2Fopen.demonii.com%3A1337&amp;tr=udp%3A%2F%2Ftracker.coppersurfer.tk%3A6969&amp;tr=udp%3A%2F%2Fexodus.desync.com%3A6969","seeders":0,"leechers":1,"uploader":".BONE.","files":8,"time":1296715457,"description":"Genre:Horror | Thriller\nLanguage:English\n &lt;a href=&quot;\nhttp://www.imdb.com/title/tt1148200/&quot; rel=&quot;nofollow&quot; target=&quot;_NEW&quot;&gt;\nhttp://www.imdb.com/title/tt1148200/&lt;/a&gt;\n\nSource:720p.BluRay.x264-BRMP\n\n\nFormat : MPEG-4\nFormat profile : Base Media\nCodec ID : isom\nFile size : 2.40 GiB\nDuration : 1h 27mn\nOverall bit rate : 3 918 Kbps\n\n\nVideo\nFormat settings, CABAC : Yes\nFormat settings, ReFrames : 3 frames\nCodec ID : avc1\nCodec ID/Info : Advanced Video Coding\nDuration : 1h 27mn\nBit rate mode : Variable\nBit rate : 3 530 Kbps\nMaximum bit rate : 27.6 Mbps\nWidth : 1 280 pixels\nHeight : 720 pixels\nDisplay aspect ratio : 16:9\nFrame rate mode : Constant\nFrame rate : 23.976 fps\nColor space : YUV\nChroma subsampling : 4:2:0\nBit depth : 8 bits\nScan type : Progressive\nBits/(Pixel*Frame) : 0.160\nStream size : 2.12 GiB (89%)\nWriting library : x264\n\nAudio\nID : 2\nFormat : AAC\nFormat/Info : Advanced Audio Codec\nFormat version : Version 4\nFormat profile : LC\nFormat settings, SBR : No\nCodec ID : 40\nDuration : 1h 27mn\nBit rate mode : Variable\nBit rate : 444 Kbps\nMaximum bit rate : 566 Kbps\nChannel(s) : 6 channels\nChannel positions : Front: L C R, Side: L R, LFE\nSampling rate : 48.0 KHz\nStream size : 278 MiB (11%)\n\n\n\nPlot:\nA maniac murders teens when they refuse to forward chain mail\n &lt;a href=&quot;\nhttp://www.rapidhdd.com/images/158618vlcsnap-00006.png&quot; rel=&quot;nofollow&quot; target=&quot;_NEW&quot;&gt;\nhttp://www.rapidhdd.com/images/158618vlcsnap-00006.png&lt;/a&gt;\n &lt;a href=&quot;\nhttp://www.rapidhdd.com/images/719725vlcsnap-00003.png&quot; rel=&quot;nofollow&quot; target=&quot;_NEW&quot;&gt;\nhttp://www.rapidhdd.com/images/719725vlcsnap-00003.png&lt;/a&gt;\n &lt;a href=&quot;\nhttp://www.rapidhdd.com/images/27028vlcsnap-00001.png&quot; rel=&quot;nofollow&quot; target=&quot;_NEW&quot;&gt;\nhttp://www.rapidhdd.com/images/27028vlcsnap-00001.png&lt;/a&gt;\n &lt;a href=&quot;\nhttp://www.rapidhdd.com/images/207897vlcsnap-00005.png&quot; rel=&quot;nofollow&quot; target=&quot;_NEW&quot;&gt;\nhttp://www.rapidhdd.com/images/207897vlcsnap-00005.png&lt;/a&gt;\n\n","torrent":{"xt":"urn:btih:dcce44715619faaf8ab245817eb272a4a256a3f2","amp;dn":"Chain+Letter+2010+720p+BRRip+x264+Feel-Free","amp;tr":["udp%3A%2F%2Ftracker.openbittorrent.com%3A80","udp%3A%2F%2Fopen.demonii.com%3A1337","udp%3A%2F%2Ftracker.coppersurfer.tk%3A6969","udp%3A%2F%2Fexodus.desync.com%3A6969"],"infoHash":"dcce44715619faaf8ab245817eb272a4a256a3f2","infoHashBuffer":{"type":"Buffer","data":[220,206,68,113,86,25,250,175,138,178,69,129,126,178,114,164,162,86,163,242]},"announce":[],"urlList":[]}}